<svg width="100" height="92" viewBox="0 0 100 92" fill="none" xmlns="http://www.w3.org/2000/svg">
<path d="M20.9007 45.5882C20.9007 67.9779 36.3235 86.5441 56.4706 89.9081C53.0331 90.7353 49.4485 91.1765 45.7721 91.1765C20.4779 91.1765 0 70.7721 0 45.5882C0 20.4044 20.4779 0 45.7537 0C49.4485 0 53.0331 0.441176 56.4522 1.26838C36.3051 4.63235 20.9007 23.1985 20.9007 45.5882ZM75.5699 64.0257C61.2868 74.2096 42.5551 72.7574 31.3787 61.3419C32.3897 63.9338 33.7132 66.4338 35.3676 68.7868C46.6912 85 68.8971 88.8787 84.9449 77.4265C100.993 65.9743 104.816 43.5478 93.4926 27.3162C91.8382 24.9449 89.9449 22.8493 87.886 21.0294C94.761 35.5147 89.8529 53.8419 75.5699 64.0257ZM35.3493 19.1728C35.0919 19.3566 34.8529 19.5588 34.614 19.7426C46.4338 16.4706 59.5956 20.4779 67.5 30.864C74.0625 39.5037 75.386 50.4596 71.9853 59.9081C82.4081 49.5772 84.4118 33.7868 76.0846 22.8125C66.8934 10.7721 48.6765 9.13603 35.3493 19.1728ZM54.4118 39.7059C53.6029 39.7059 52.9412 39.0441 52.9412 38.2353V30.8824C52.9412 30.0735 52.2794 29.4118 51.4706 29.4118H42.6471C41.8382 29.4118 41.1765 30.0735 41.1765 30.8824V38.2353C41.1765 39.0441 40.5147 39.7059 39.7059 39.7059H32.3529C31.5441 39.7059 30.8824 40.3676 30.8824 41.1765V50C30.8824 50.8088 31.5441 51.4706 32.3529 51.4706H39.7059C40.5147 51.4706 41.1765 52.1324 41.1765 52.9412V60.2941C41.1765 61.1029 41.8382 61.7647 42.6471 61.7647H51.4706C52.2794 61.7647 52.9412 61.1029 52.9412 60.2941V52.9412C52.9412 52.1324 53.6029 51.4706 54.4118 51.4706H61.7647C62.5735 51.4706 63.2353 50.8088 63.2353 50V41.1765C63.2353 40.3676 62.5735 39.7059 61.7647 39.7059H54.4118Z" fill="black"/>
</svg>
