<svg width="174" height="153" viewBox="0 0 174 153" fill="none" xmlns="http://www.w3.org/2000/svg">
<path d="M7.78409 114.909L14.8153 137.011H15.0852L22.1307 114.909H28.9489L18.9205 144H10.9943L0.951705 114.909H7.78409ZM32.3366 144V122.182H38.3878V144H32.3366ZM35.3764 119.369C34.4768 119.369 33.705 119.071 33.0611 118.474C32.4266 117.868 32.1094 117.144 32.1094 116.301C32.1094 115.468 32.4266 114.753 33.0611 114.156C33.705 113.55 34.4768 113.247 35.3764 113.247C36.276 113.247 37.0431 113.55 37.6776 114.156C38.3215 114.753 38.6435 115.468 38.6435 116.301C38.6435 117.144 38.3215 117.868 37.6776 118.474C37.0431 119.071 36.276 119.369 35.3764 119.369ZM51.2749 144.355C49.6177 144.355 48.1167 143.929 46.772 143.077C45.4368 142.215 44.3762 140.951 43.5902 139.284C42.8137 137.608 42.4254 135.553 42.4254 133.119C42.4254 130.619 42.8279 128.541 43.6328 126.884C44.4377 125.217 45.5078 123.972 46.843 123.148C48.1877 122.314 49.6603 121.898 51.2607 121.898C52.4822 121.898 53.5002 122.106 54.3146 122.523C55.1385 122.93 55.8014 123.441 56.3033 124.057C56.8146 124.663 57.2029 125.259 57.468 125.847H57.6527V114.909H63.6896V144H57.7237V140.506H57.468C57.1839 141.112 56.7815 141.713 56.2607 142.31C55.7493 142.897 55.0817 143.384 54.2578 143.773C53.4434 144.161 52.4491 144.355 51.2749 144.355ZM53.1925 139.54C54.1679 139.54 54.9917 139.275 55.6641 138.744C56.3459 138.205 56.8667 137.452 57.2266 136.486C57.5959 135.52 57.7805 134.388 57.7805 133.091C57.7805 131.794 57.6006 130.667 57.2408 129.71C56.8809 128.754 56.3601 128.015 55.6783 127.494C54.9964 126.973 54.1679 126.713 53.1925 126.713C52.1982 126.713 51.3601 126.983 50.6783 127.523C49.9964 128.062 49.4804 128.811 49.13 129.767C48.7796 130.723 48.6044 131.831 48.6044 133.091C48.6044 134.36 48.7796 135.482 49.13 136.457C49.4898 137.423 50.0059 138.181 50.6783 138.73C51.3601 139.27 52.1982 139.54 53.1925 139.54ZM74.8864 144.412C73.4943 144.412 72.2538 144.17 71.1648 143.688C70.0758 143.195 69.214 142.471 68.5795 141.514C67.9545 140.548 67.642 139.346 67.642 137.906C67.642 136.694 67.8646 135.676 68.3097 134.852C68.7547 134.028 69.3608 133.366 70.1278 132.864C70.8949 132.362 71.7661 131.983 72.7415 131.727C73.7263 131.472 74.7585 131.292 75.8381 131.188C77.107 131.055 78.1297 130.932 78.9062 130.818C79.6828 130.695 80.2462 130.515 80.5966 130.278C80.947 130.042 81.1222 129.691 81.1222 129.227V129.142C81.1222 128.242 80.8381 127.546 80.2699 127.054C79.7112 126.562 78.9157 126.315 77.8835 126.315C76.7945 126.315 75.928 126.557 75.2841 127.04C74.6402 127.513 74.214 128.11 74.0057 128.83L68.4091 128.375C68.6932 127.049 69.2519 125.903 70.0852 124.938C70.9186 123.962 71.9934 123.214 73.3097 122.693C74.6354 122.163 76.1695 121.898 77.9119 121.898C79.1241 121.898 80.2841 122.04 81.392 122.324C82.5095 122.608 83.4991 123.048 84.3608 123.645C85.232 124.241 85.9186 125.009 86.4205 125.946C86.9223 126.874 87.1733 127.987 87.1733 129.284V144H81.4347V140.974H81.2642C80.9138 141.656 80.4451 142.258 79.858 142.778C79.2708 143.29 78.5653 143.692 77.7415 143.986C76.9176 144.27 75.9659 144.412 74.8864 144.412ZM76.6193 140.236C77.5095 140.236 78.2955 140.061 78.9773 139.71C79.6591 139.35 80.1941 138.867 80.5824 138.261C80.9706 137.655 81.1648 136.969 81.1648 136.202V133.886C80.9754 134.009 80.715 134.123 80.3835 134.227C80.0616 134.322 79.697 134.412 79.2898 134.497C78.8826 134.573 78.4754 134.644 78.0682 134.71C77.661 134.767 77.2917 134.819 76.9602 134.866C76.25 134.971 75.6297 135.136 75.0994 135.364C74.5691 135.591 74.1572 135.899 73.8636 136.287C73.5701 136.666 73.4233 137.139 73.4233 137.707C73.4233 138.531 73.7216 139.161 74.3182 139.597C74.9242 140.023 75.6913 140.236 76.6193 140.236ZM91.9815 144V114.909H103.459C105.665 114.909 107.545 115.33 109.098 116.173C110.651 117.007 111.835 118.167 112.649 119.653C113.473 121.131 113.885 122.835 113.885 124.767C113.885 126.699 113.468 128.403 112.635 129.881C111.802 131.358 110.594 132.509 109.013 133.332C107.441 134.156 105.537 134.568 103.303 134.568H95.9872V129.639H102.308C103.492 129.639 104.467 129.436 105.234 129.028C106.011 128.612 106.589 128.039 106.967 127.31C107.356 126.571 107.55 125.723 107.55 124.767C107.55 123.801 107.356 122.958 106.967 122.239C106.589 121.509 106.011 120.946 105.234 120.548C104.458 120.141 103.473 119.938 102.28 119.938H98.1321V144H91.9815ZM123.817 114.909V144H117.766V114.909H123.817ZM142.656 134.71V122.182H148.707V144H142.898V140.037H142.67C142.178 141.315 141.359 142.343 140.213 143.119C139.077 143.896 137.689 144.284 136.051 144.284C134.593 144.284 133.31 143.953 132.202 143.29C131.094 142.627 130.227 141.685 129.602 140.463C128.987 139.241 128.674 137.778 128.665 136.074V122.182H134.716V134.994C134.725 136.282 135.071 137.3 135.753 138.048C136.435 138.796 137.348 139.17 138.494 139.17C139.223 139.17 139.905 139.005 140.54 138.673C141.174 138.332 141.686 137.83 142.074 137.168C142.472 136.505 142.666 135.686 142.656 134.71ZM171.701 128.403L166.161 128.744C166.067 128.271 165.863 127.845 165.55 127.466C165.238 127.078 164.826 126.77 164.315 126.543C163.813 126.306 163.211 126.188 162.511 126.188C161.573 126.188 160.782 126.386 160.138 126.784C159.495 127.172 159.173 127.693 159.173 128.347C159.173 128.867 159.381 129.308 159.798 129.668C160.214 130.027 160.929 130.316 161.942 130.534L165.891 131.33C168.013 131.765 169.594 132.466 170.636 133.432C171.677 134.398 172.198 135.667 172.198 137.239C172.198 138.669 171.777 139.923 170.934 141.003C170.101 142.082 168.955 142.925 167.496 143.531C166.048 144.128 164.376 144.426 162.482 144.426C159.594 144.426 157.293 143.825 155.579 142.622C153.874 141.41 152.875 139.762 152.582 137.679L158.533 137.366C158.713 138.247 159.149 138.92 159.84 139.384C160.531 139.838 161.417 140.065 162.496 140.065C163.557 140.065 164.409 139.862 165.053 139.455C165.707 139.038 166.038 138.503 166.048 137.849C166.038 137.3 165.806 136.85 165.352 136.5C164.897 136.14 164.196 135.866 163.249 135.676L159.471 134.923C157.34 134.497 155.754 133.759 154.712 132.707C153.68 131.656 153.164 130.316 153.164 128.688C153.164 127.286 153.543 126.079 154.3 125.065C155.067 124.052 156.142 123.271 157.525 122.722C158.917 122.172 160.546 121.898 162.411 121.898C165.167 121.898 167.335 122.48 168.917 123.645C170.508 124.81 171.436 126.396 171.701 128.403Z" fill="black"/>
<path d="M57.9007 45.5882C57.9007 67.9779 73.3235 86.5441 93.4706 89.9081C90.0331 90.7353 86.4485 91.1765 82.7721 91.1765C57.4779 91.1765 37 70.7721 37 45.5882C37 20.4044 57.4779 0 82.7537 0C86.4485 0 90.0331 0.441176 93.4522 1.26838C73.3051 4.63235 57.9007 23.1985 57.9007 45.5882ZM112.57 64.0257C98.2868 74.2096 79.5551 72.7574 68.3787 61.3419C69.3897 63.9338 70.7132 66.4338 72.3676 68.7868C83.6912 85 105.897 88.8787 121.945 77.4265C137.993 65.9743 141.816 43.5478 130.493 27.3162C128.838 24.9449 126.945 22.8493 124.886 21.0294C131.761 35.5147 126.853 53.8419 112.57 64.0257ZM72.3493 19.1728C72.0919 19.3566 71.8529 19.5588 71.614 19.7426C83.4338 16.4706 96.5956 20.4779 104.5 30.864C111.062 39.5037 112.386 50.4596 108.985 59.9081C119.408 49.5772 121.412 33.7868 113.085 22.8125C103.893 10.7721 85.6765 9.13603 72.3493 19.1728ZM91.4118 39.7059C90.6029 39.7059 89.9412 39.0441 89.9412 38.2353V30.8824C89.9412 30.0735 89.2794 29.4118 88.4706 29.4118H79.6471C78.8382 29.4118 78.1765 30.0735 78.1765 30.8824V38.2353C78.1765 39.0441 77.5147 39.7059 76.7059 39.7059H69.3529C68.5441 39.7059 67.8824 40.3676 67.8824 41.1765V50C67.8824 50.8088 68.5441 51.4706 69.3529 51.4706H76.7059C77.5147 51.4706 78.1765 52.1324 78.1765 52.9412V60.2941C78.1765 61.1029 78.8382 61.7647 79.6471 61.7647H88.4706C89.2794 61.7647 89.9412 61.1029 89.9412 60.2941V52.9412C89.9412 52.1324 90.6029 51.4706 91.4118 51.4706H98.7647C99.5735 51.4706 100.235 50.8088 100.235 50V41.1765C100.235 40.3676 99.5735 39.7059 98.7647 39.7059H91.4118Z" fill="black"/>
</svg>
