<svg width="142" height="39" viewBox="0 0 142 39" fill="none" xmlns="http://www.w3.org/2000/svg">
<path d="M58.892 13.4545L62.4077 24.5057H62.5426L66.0653 13.4545H69.4744L64.4602 28H60.4972L55.4759 13.4545H58.892ZM71.1683 28V17.0909H74.1939V28H71.1683ZM72.6882 15.6847C72.2384 15.6847 71.8525 15.5355 71.5305 15.2372C71.2133 14.9342 71.0547 14.572 71.0547 14.1506C71.0547 13.7339 71.2133 13.3764 71.5305 13.0781C71.8525 12.7751 72.2384 12.6236 72.6882 12.6236C73.138 12.6236 73.5215 12.7751 73.8388 13.0781C74.1607 13.3764 74.3217 13.7339 74.3217 14.1506C74.3217 14.572 74.1607 14.9342 73.8388 15.2372C73.5215 15.5355 73.138 15.6847 72.6882 15.6847ZM80.6374 28.1776C79.8088 28.1776 79.0584 27.9645 78.386 27.5384C77.7184 27.1075 77.1881 26.4754 76.7951 25.642C76.4068 24.804 76.2127 23.7765 76.2127 22.5597C76.2127 21.3097 76.4139 20.2704 76.8164 19.4418C77.2189 18.6084 77.7539 17.9858 78.4215 17.5739C79.0939 17.1572 79.8301 16.9489 80.6303 16.9489C81.2411 16.9489 81.7501 17.053 82.1573 17.2614C82.5692 17.465 82.9007 17.7206 83.1516 18.0284C83.4073 18.3314 83.6014 18.6297 83.734 18.9233H83.8263V13.4545H86.8448V28H83.8619V26.2528H83.734C83.592 26.5559 83.3907 26.8565 83.1303 27.1548C82.8746 27.4484 82.5408 27.6922 82.1289 27.8864C81.7217 28.0805 81.2246 28.1776 80.6374 28.1776ZM81.5962 25.7699C82.0839 25.7699 82.4959 25.6373 82.832 25.3722C83.1729 25.1023 83.4334 24.7259 83.6133 24.2429C83.7979 23.7599 83.8903 23.1941 83.8903 22.5455C83.8903 21.8968 83.8003 21.3333 83.6204 20.8551C83.4405 20.3769 83.18 20.0076 82.8391 19.7472C82.4982 19.4867 82.0839 19.3565 81.5962 19.3565C81.0991 19.3565 80.68 19.4915 80.3391 19.7614C79.9982 20.0312 79.7402 20.4053 79.565 20.8835C79.3898 21.3617 79.3022 21.9157 79.3022 22.5455C79.3022 23.1799 79.3898 23.741 79.565 24.2287C79.7449 24.7116 80.003 25.0904 80.3391 25.3651C80.68 25.6349 81.0991 25.7699 81.5962 25.7699ZM92.4432 28.206C91.7472 28.206 91.1269 28.0852 90.5824 27.8438C90.0379 27.5975 89.607 27.2353 89.2898 26.7571C88.9773 26.2741 88.821 25.6728 88.821 24.9531C88.821 24.3471 88.9323 23.8381 89.1548 23.4261C89.3774 23.0142 89.6804 22.6828 90.0639 22.4318C90.4474 22.1809 90.883 21.9915 91.3707 21.8636C91.8632 21.7358 92.3793 21.6458 92.919 21.5938C93.5535 21.5275 94.0649 21.4659 94.4531 21.4091C94.8414 21.3475 95.1231 21.2576 95.2983 21.1392C95.4735 21.0208 95.5611 20.8456 95.5611 20.6136V20.571C95.5611 20.1212 95.419 19.7732 95.1349 19.527C94.8556 19.2808 94.4579 19.1577 93.9418 19.1577C93.3973 19.1577 92.964 19.2784 92.642 19.5199C92.3201 19.7566 92.107 20.0549 92.0028 20.4148L89.2045 20.1875C89.3466 19.5246 89.6259 18.9517 90.0426 18.4688C90.4593 17.9811 90.9967 17.607 91.6548 17.3466C92.3177 17.0814 93.0848 16.9489 93.956 16.9489C94.562 16.9489 95.142 17.0199 95.696 17.1619C96.2547 17.304 96.7495 17.5241 97.1804 17.8224C97.616 18.1207 97.9593 18.5043 98.2102 18.973C98.4612 19.437 98.5866 19.9934 98.5866 20.642V28H95.7173V26.4872H95.6321C95.4569 26.8281 95.2225 27.1288 94.929 27.3892C94.6354 27.6449 94.2827 27.8461 93.8707 27.9929C93.4588 28.1349 92.983 28.206 92.4432 28.206ZM93.3097 26.1179C93.7547 26.1179 94.1477 26.0303 94.4886 25.8551C94.8295 25.6752 95.0971 25.4337 95.2912 25.1307C95.4853 24.8277 95.5824 24.4844 95.5824 24.1009V22.9432C95.4877 23.0047 95.3575 23.0616 95.1918 23.1136C95.0308 23.161 94.8485 23.206 94.6449 23.2486C94.4413 23.2865 94.2377 23.322 94.0341 23.3551C93.8305 23.3835 93.6458 23.4096 93.4801 23.4332C93.125 23.4853 92.8149 23.5682 92.5497 23.6818C92.2846 23.7955 92.0786 23.9493 91.9318 24.1435C91.785 24.3329 91.7116 24.5696 91.7116 24.8537C91.7116 25.2656 91.8608 25.5805 92.1591 25.7983C92.4621 26.0114 92.8456 26.1179 93.3097 26.1179ZM100.991 28V13.4545H106.729C107.833 13.4545 108.772 13.6652 109.549 14.0866C110.326 14.5033 110.917 15.0833 111.325 15.8267C111.737 16.5653 111.942 17.4176 111.942 18.3835C111.942 19.3494 111.734 20.2017 111.317 20.9403C110.901 21.679 110.297 22.2543 109.506 22.6662C108.72 23.0781 107.769 23.2841 106.651 23.2841H102.994V20.8196H106.154C106.746 20.8196 107.234 20.7178 107.617 20.5142C108.005 20.3059 108.294 20.0194 108.484 19.6548C108.678 19.2855 108.775 18.8617 108.775 18.3835C108.775 17.9006 108.678 17.4792 108.484 17.1193C108.294 16.7547 108.005 16.473 107.617 16.2741C107.229 16.0705 106.737 15.9688 106.14 15.9688H104.066V28H100.991ZM116.909 13.4545V28H113.883V13.4545H116.909ZM126.328 23.3551V17.0909H129.354V28H126.449V26.0185H126.335C126.089 26.6577 125.679 27.1714 125.107 27.5597C124.538 27.9479 123.845 28.142 123.026 28.142C122.296 28.142 121.655 27.9763 121.101 27.6449C120.547 27.3134 120.114 26.8423 119.801 26.2315C119.493 25.6207 119.337 24.8892 119.332 24.0369V17.0909H122.358V23.4972C122.363 24.1411 122.536 24.6501 122.876 25.0241C123.217 25.3982 123.674 25.5852 124.247 25.5852C124.612 25.5852 124.953 25.5024 125.27 25.3366C125.587 25.1662 125.843 24.9152 126.037 24.5838C126.236 24.2524 126.333 23.8428 126.328 23.3551ZM140.85 20.2017L138.081 20.3722C138.033 20.1354 137.931 19.9223 137.775 19.733C137.619 19.5388 137.413 19.3849 137.157 19.2713C136.906 19.1529 136.606 19.0938 136.255 19.0938C135.787 19.0938 135.391 19.1932 135.069 19.392C134.747 19.5862 134.586 19.8466 134.586 20.1733C134.586 20.4337 134.69 20.6539 134.899 20.8338C135.107 21.0137 135.465 21.1581 135.971 21.267L137.946 21.6648C139.006 21.8826 139.797 22.233 140.318 22.7159C140.839 23.1989 141.099 23.8333 141.099 24.6193C141.099 25.3343 140.888 25.9616 140.467 26.5014C140.05 27.0412 139.477 27.4626 138.748 27.7656C138.024 28.0639 137.188 28.2131 136.241 28.2131C134.797 28.2131 133.646 27.9124 132.789 27.3111C131.937 26.705 131.438 25.8812 131.291 24.8395L134.267 24.6832C134.357 25.1236 134.574 25.4598 134.92 25.6918C135.266 25.919 135.708 26.0327 136.248 26.0327C136.779 26.0327 137.205 25.9309 137.527 25.7273C137.853 25.5189 138.019 25.2514 138.024 24.9247C138.019 24.6501 137.903 24.4252 137.676 24.25C137.449 24.0701 137.098 23.9328 136.625 23.8381L134.735 23.4616C133.67 23.2486 132.877 22.8793 132.356 22.3537C131.84 21.8281 131.582 21.1581 131.582 20.3438C131.582 19.643 131.771 19.0393 132.15 18.5327C132.534 18.026 133.071 17.6354 133.762 17.3608C134.458 17.0862 135.273 16.9489 136.206 16.9489C137.583 16.9489 138.668 17.2401 139.458 17.8224C140.254 18.4048 140.718 19.1979 140.85 20.2017Z" fill="black"/>
<path d="M8.84374 19.3438C8.84374 28.79 15.3696 36.6232 23.8944 38.0424C22.4399 38.3914 20.9232 38.5776 19.3675 38.5776C8.66484 38.5776 0 29.9689 0 19.3438C0 8.71866 8.66484 0.109985 19.3598 0.109985C20.9232 0.109985 22.4399 0.296119 23.8866 0.645119C15.3618 2.06439 8.84374 9.8975 8.84374 19.3438ZM31.9759 27.1226C25.9323 31.4192 18.0064 30.8065 13.2773 25.9903C13.7051 27.0838 14.2651 28.1386 14.9651 29.1313C19.7565 35.9717 29.1524 37.6081 35.9427 32.7764C42.7331 27.9447 44.3509 18.4829 39.5596 11.6347C38.8595 10.6343 38.0584 9.75015 37.1872 8.98235C40.0963 15.0937 38.0195 22.826 31.9759 27.1226ZM14.9573 8.19903C14.8485 8.27659 14.7473 8.3619 14.6462 8.43946C19.6476 7.05897 25.2167 8.74968 28.5613 13.1316C31.3381 16.7767 31.8981 21.399 30.4592 25.3854C34.8694 21.0267 35.7172 14.3647 32.1937 9.73464C28.3046 4.65474 20.5965 3.9645 14.9573 8.19903ZM23.0233 16.862C22.681 16.862 22.401 16.5828 22.401 16.2416V13.1393C22.401 12.7981 22.121 12.5189 21.7788 12.5189H18.0453C17.703 12.5189 17.423 12.7981 17.423 13.1393V16.2416C17.423 16.5828 17.143 16.862 16.8008 16.862H13.6895C13.3473 16.862 13.0673 17.1412 13.0673 17.4824V21.2051C13.0673 21.5464 13.3473 21.8256 13.6895 21.8256H16.8008C17.143 21.8256 17.423 22.1048 17.423 22.446V25.5482C17.423 25.8895 17.703 26.1687 18.0453 26.1687H21.7788C22.121 26.1687 22.401 25.8895 22.401 25.5482V22.446C22.401 22.1048 22.681 21.8256 23.0233 21.8256H26.1345C26.4768 21.8256 26.7568 21.5464 26.7568 21.2051V17.4824C26.7568 17.1412 26.4768 16.862 26.1345 16.862H23.0233Z" fill="black"/>
</svg>
